<?xml version="1.0" encoding="UTF-8" standalone="no"?>
<svg
   height="937"
   ed:hSpacing="30"
   width="957"
   ed:vSpacing="30"
   id="page300000100"
   viewBox="0 0 957 937"
   ed:name="页面-1"
   version="1.1"
   sodipodi:docname="fig1.svg"
   inkscape:version="1.1 (c68e22c387, 2021-05-23)"
   xmlns:inkscape="http://www.inkscape.org/namespaces/inkscape"
   xmlns:sodipodi="http://sodipodi.sourceforge.net/DTD/sodipodi-0.dtd"
   xmlns="http://www.w3.org/2000/svg"
   xmlns:svg="http://www.w3.org/2000/svg"
   xmlns:ed="https://www.edrawsoft.cn/xml/2017/SVGExtensions/">
  <sodipodi:namedview
     id="namedview548"
     pagecolor="#ffffff"
     bordercolor="#666666"
     borderopacity="1.0"
     inkscape:pageshadow="2"
     inkscape:pageopacity="0.0"
     inkscape:pagecheckerboard="0"
     showgrid="false"
     inkscape:zoom="0.87833511"
     inkscape:cx="492.97813"
     inkscape:cy="482.73147"
     inkscape:window-width="1920"
     inkscape:window-height="1009"
     inkscape:window-x="-8"
     inkscape:window-y="-8"
     inkscape:window-maximized="1"
     inkscape:current-layer="page300000100" />
  <style
     type="text/css"
     id="style2"><![CDATA[
g[ed\:togtopicid],g[ed\:hyperlink],g[ed\:comment],g[ed\:note] {cursor:pointer;}
g[id] {-moz-user-select: none;-ms-user-select: none;user-select: none;}
svg text::selection,svg tspan::selection{background-color: #4285f4;color: #ffffff;fill: #ffffff;}
.st3 {fill:#000000;font-family:微软雅黑;font-size:10pt;font-weight:bold}
.st5 {fill:#454545;font-family:微软雅黑;font-size:10pt}
.st6 {fill:#454545;font-family:微软雅黑;font-size:8pt}
.st2 {fill:#ffffff;font-family:微软雅黑;font-size:10pt;font-weight:bold}
.st1 {fill:#ffffff;font-family:微软雅黑;font-size:12pt;font-weight:bold}
.st4 {fill:#ffffff}
]]></style>
  <defs
     id="defs4" />
  <rect
     height="860.19672"
     x="12.880857"
     y="70.256767"
     fill="#ffffff"
     width="933.87244"
     id="rect6"
     style="stroke-width:0.954779;fill:none" />
  <path
     d="M-7,194.8L24.5,194.8L24.5,-188.8C24.5,-192.1,27.2,-194.8,30.5,-194.8L56,-194.8"
     stroke-width="2"
     fill="none"
     stroke-linecap="round"
     stroke="#424f58"
     ed:parentid="101"
     transform="matrix(1,0,0,1,127,300.75)"
     ed:tosuperid="102"
     id="103"
     stroke-linejoin="round" />
  <path
     d="M-7,-160.3L24.5,-160.3L24.5,154.3C24.5,157.6,27.2,160.3,30.5,160.3L56,160.3"
     stroke-width="2"
     fill="none"
     stroke-linecap="round"
     stroke="#424f58"
     ed:parentid="101"
     transform="matrix(1,0,0,1,127,655.75)"
     ed:tosuperid="106"
     id="107"
     stroke-linejoin="round" />
  <path
     d="M-7,-194.8L24.5,-194.8L24.5,188.8C24.5,192.1,27.2,194.8,30.5,194.8L56,194.8"
     stroke-width="2"
     fill="none"
     stroke-linecap="round"
     stroke="#424f58"
     ed:parentid="101"
     transform="matrix(1,0,0,1,127,690.25)"
     ed:tosuperid="108"
     id="109"
     stroke-linejoin="round" />
  <path
     d="M-13.5,59.5L0,59.5L0,-53.5C0,-56.8,2.7,-59.5,6,-59.5L13.5,-59.5"
     fill="none"
     stroke-linecap="round"
     stroke="#424f58"
     ed:parentid="187"
     transform="matrix(1,0,0,1,433.5,252)"
     ed:tosuperid="188"
     id="170"
     stroke-linejoin="round" />
  <path
     d="M0,24.5L0,-18.5C0,-21.8,2.7,-24.5,6,-24.5L13.5,-24.5"
     fill="none"
     stroke-linecap="round"
     stroke="#424f58"
     ed:parentid="187"
     transform="matrix(1,0,0,1,433.5,287)"
     ed:tosuperid="189"
     id="171"
     stroke-linejoin="round" />
  <path
     d="M-13.5,0L0,0C0,0,2.7,0,6,0L13.5,0"
     fill="none"
     stroke-linecap="round"
     stroke="#424f58"
     ed:parentid="198"
     transform="matrix(1,0,0,1,636.5,234.5)"
     ed:tosuperid="190"
     id="172"
     stroke-linejoin="round" />
  <path
     d="M0,-3.5L0,-2.5C0,0.8,2.7,3.5,6,3.5L13.5,3.5"
     fill="none"
     stroke-linecap="round"
     stroke="#424f58"
     ed:parentid="187"
     transform="matrix(1,0,0,1,433.5,315)"
     ed:tosuperid="191"
     id="173"
     stroke-linejoin="round" />
  <path
     d="M0,-24.5L0,18.5C0,21.8,2.7,24.5,6,24.5L13.5,24.5"
     fill="none"
     stroke-linecap="round"
     stroke="#424f58"
     ed:parentid="187"
     transform="matrix(1,0,0,1,433.5,336)"
     ed:tosuperid="192"
     id="174"
     stroke-linejoin="round" />
  <path
     d="M0,-45.5L0,39.5C0,42.8,2.7,45.5,6,45.5L13.5,45.5"
     fill="none"
     stroke-linecap="round"
     stroke="#424f58"
     ed:parentid="187"
     transform="matrix(1,0,0,1,433.5,357)"
     ed:tosuperid="193"
     id="175"
     stroke-linejoin="round" />
  <path
     d="M0,-59.5L0,53.5C0,56.8,2.7,59.5,6,59.5L13.5,59.5"
     fill="none"
     stroke-linecap="round"
     stroke="#424f58"
     ed:parentid="187"
     transform="matrix(1,0,0,1,433.5,371)"
     ed:tosuperid="194"
     id="176"
     stroke-linejoin="round" />
  <path
     d="M-13.5,7L0,7L0,-1C0,-4.3,2.7,-7,6,-7L13.5,-7"
     fill="none"
     stroke-linecap="round"
     stroke="#424f58"
     ed:parentid="188"
     transform="matrix(1,0,0,1,502.5,185.5)"
     ed:tosuperid="195"
     id="177"
     stroke-linejoin="round" />
  <path
     d="M0,-7L0,1C0,4.3,2.7,7,6,7L13.5,7"
     fill="none"
     stroke-linecap="round"
     stroke="#424f58"
     ed:parentid="188"
     transform="matrix(1,0,0,1,502.5,199.5)"
     ed:tosuperid="196"
     id="178"
     stroke-linejoin="round" />
  <path
     d="M-13.5,0L0,0C0,0,2.7,0,6,0L13.5,0"
     fill="none"
     stroke-linecap="round"
     stroke="#424f58"
     ed:parentid="196"
     transform="matrix(1,0,0,1,624.5,206.5)"
     ed:tosuperid="197"
     id="179"
     stroke-linejoin="round" />
  <path
     d="M-13.5,14L0,14L0,-8C0,-11.3,2.7,-14,6,-14L13.5,-14"
     fill="none"
     stroke-linecap="round"
     stroke="#424f58"
     ed:parentid="189"
     transform="matrix(1,0,0,1,516.5,248.5)"
     ed:tosuperid="198"
     id="180"
     stroke-linejoin="round" />
  <path
     d="M0,0C0,0,2.7,0,6,0L13.5,0"
     fill="none"
     stroke-linecap="round"
     stroke="#424f58"
     ed:parentid="189"
     transform="matrix(1,0,0,1,516.5,262.5)"
     ed:tosuperid="199"
     id="181"
     stroke-linejoin="round" />
  <path
     d="M0,-14L0,8C0,11.3,2.7,14,6,14L13.5,14"
     fill="none"
     stroke-linecap="round"
     stroke="#424f58"
     ed:parentid="189"
     transform="matrix(1,0,0,1,516.5,276.5)"
     ed:tosuperid="200"
     id="182"
     stroke-linejoin="round" />
  <path
     d="M-13.5,0L0,0C0,0,2.7,0,6,0L13.5,0"
     fill="none"
     stroke-linecap="round"
     stroke="#424f58"
     ed:parentid="199"
     transform="matrix(1,0,0,1,580.5,262.5)"
     ed:tosuperid="201"
     id="183"
     stroke-linejoin="round" />
  <path
     d="M-13.5,0L0,0C0,0,2.7,0,6,0L13.5,0"
     fill="none"
     stroke-linecap="round"
     stroke="#424f58"
     ed:parentid="191"
     transform="matrix(1,0,0,1,511.5,318.5)"
     ed:tosuperid="202"
     id="184"
     stroke-linejoin="round" />
  <path
     d="M-13.5,7L0,7L0,-1C0,-4.3,2.7,-7,6,-7L13.5,-7"
     fill="none"
     stroke-linecap="round"
     stroke="#424f58"
     ed:parentid="192"
     transform="matrix(1,0,0,1,538.5,353.5)"
     ed:tosuperid="203"
     id="185"
     stroke-linejoin="round" />
  <path
     d="M0,-7L0,1C0,4.3,2.7,7,6,7L13.5,7"
     fill="none"
     stroke-linecap="round"
     stroke="#424f58"
     ed:parentid="192"
     transform="matrix(1,0,0,1,538.5,367.5)"
     ed:tosuperid="204"
     id="186"
     stroke-linejoin="round" />
  <path
     d="M-7,92L24.5,92L24.5,-86C24.5,-89.3,27.2,-92,30.5,-92L56,-92"
     stroke-width="2"
     fill="none"
     stroke-linecap="round"
     stroke="#424f58"
     ed:parentid="101"
     transform="matrix(1,0,0,1,127,403.5)"
     ed:tosuperid="187"
     id="205"
     stroke-linejoin="round" />
  <path
     d="M-13.5,70L0,70L0,-64C0,-67.3,2.7,-70,6,-70L13.5,-70"
     fill="none"
     stroke-linecap="round"
     stroke="#424f58"
     ed:parentid="223"
     transform="matrix(1,0,0,1,417.5,555)"
     ed:tosuperid="224"
     id="206"
     stroke-linejoin="round" />
  <path
     d="M0,49L0,-43C0,-46.3,2.7,-49,6,-49L13.5,-49"
     fill="none"
     stroke-linecap="round"
     stroke="#424f58"
     ed:parentid="223"
     transform="matrix(1,0,0,1,417.5,576)"
     ed:tosuperid="225"
     id="207"
     stroke-linejoin="round" />
  <path
     d="M0,28L0,-22C0,-25.3,2.7,-28,6,-28L13.5,-28"
     fill="none"
     stroke-linecap="round"
     stroke="#424f58"
     ed:parentid="223"
     transform="matrix(1,0,0,1,417.5,597)"
     ed:tosuperid="227"
     id="209"
     stroke-linejoin="round" />
  <path
     d="M0,3.5L0,2.5C0,-0.8,2.7,-3.5,6,-3.5L13.5,-3.5"
     fill="none"
     stroke-linecap="round"
     stroke="#424f58"
     ed:parentid="223"
     transform="matrix(1,0,0,1,417.5,621.5)"
     ed:tosuperid="228"
     id="210"
     stroke-linejoin="round" />
  <path
     d="M0,-42L0,36C0,39.3,2.7,42,6,42L13.5,42"
     fill="none"
     stroke-linecap="round"
     stroke="#424f58"
     ed:parentid="223"
     transform="matrix(1,0,0,1,417.5,667)"
     ed:tosuperid="229"
     id="211"
     stroke-linejoin="round" />
  <path
     d="M0,-70L0,64C0,67.3,2.7,70,6,70L13.5,70"
     fill="none"
     stroke-linecap="round"
     stroke="#424f58"
     ed:parentid="223"
     transform="matrix(1,0,0,1,417.5,695)"
     ed:tosuperid="230"
     id="212"
     stroke-linejoin="round" />
  <path
     d="M-13.5,7L0,7L0,-1C0,-4.3,2.7,-7,6,-7L13.5,-7"
     fill="none"
     stroke-linecap="round"
     stroke="#424f58"
     ed:parentid="225"
     transform="matrix(1,0,0,1,500.5,520)"
     ed:tosuperid="234"
     id="216"
     stroke-linejoin="round" />
  <path
     d="M0,-7L0,1C0,4.3,2.7,7,6,7L13.5,7"
     fill="none"
     stroke-linecap="round"
     stroke="#424f58"
     ed:parentid="225"
     transform="matrix(1,0,0,1,500.5,534)"
     ed:tosuperid="236"
     id="218"
     stroke-linejoin="round" />
  <path
     d="M-13.5,7L0,7L0,-1C0,-4.3,2.7,-7,6,-7L13.5,-7"
     fill="none"
     stroke-linecap="round"
     stroke="#424f58"
     ed:parentid="246"
     transform="matrix(1,0,0,1,715.5,632)"
     ed:tosuperid="239"
     id="221"
     stroke-linejoin="round" />
  <path
     d="M0,-7L0,1C0,4.3,2.7,7,6,7L13.5,7"
     fill="none"
     stroke-linecap="round"
     stroke="#424f58"
     ed:parentid="246"
     transform="matrix(1,0,0,1,715.5,646)"
     ed:tosuperid="240"
     id="222"
     stroke-linejoin="round" />
  <path
     d="M-7,-64.8L24.5,-64.8L24.5,58.8C24.5,62.1,27.2,64.8,30.5,64.8L56,64.8"
     stroke-width="2"
     fill="none"
     stroke-linecap="round"
     stroke="#424f58"
     ed:parentid="101"
     transform="matrix(1,0,0,1,127,560.25)"
     ed:tosuperid="223"
     id="241"
     stroke-linejoin="round" />
  <path
     d="M-13.5,10.5L0,10.5L0,-4.5C0,-7.8,2.7,-10.5,6,-10.5L13.5,-10.5"
     fill="none"
     stroke-linecap="round"
     stroke="#424f58"
     ed:parentid="228"
     transform="matrix(1,0,0,1,522.5,607.5)"
     ed:tosuperid="242"
     id="243"
     stroke-linejoin="round" />
  <path
     d="M0,-10.5L0,4.5C0,7.8,2.7,10.5,6,10.5L13.5,10.5"
     fill="none"
     stroke-linecap="round"
     stroke="#424f58"
     ed:parentid="228"
     transform="matrix(1,0,0,1,522.5,628.5)"
     ed:tosuperid="244"
     id="245"
     stroke-linejoin="round" />
  <path
     d="M-13.5,0L0,0C0,0,2.7,0,6,0L13.5,0"
     fill="none"
     stroke-linecap="round"
     stroke="#424f58"
     ed:parentid="244"
     transform="matrix(1,0,0,1,646.5,639)"
     ed:tosuperid="246"
     id="247"
     stroke-linejoin="round" />
  <path
     d="M-13.5,14L0,14L0,-8C0,-11.3,2.7,-14,6,-14L13.5,-14"
     fill="none"
     stroke-linecap="round"
     stroke="#424f58"
     ed:parentid="229"
     transform="matrix(1,0,0,1,519.5,695)"
     ed:tosuperid="249"
     id="250"
     stroke-linejoin="round" />
  <path
     d="M0,0C0,0,2.7,0,6,0L13.5,0"
     fill="none"
     stroke-linecap="round"
     stroke="#424f58"
     ed:parentid="229"
     transform="matrix(1,0,0,1,519.5,709)"
     ed:tosuperid="251"
     id="252"
     stroke-linejoin="round" />
  <path
     d="M0,-14L0,8C0,11.3,2.7,14,6,14L13.5,14"
     fill="none"
     stroke-linecap="round"
     stroke="#424f58"
     ed:parentid="229"
     transform="matrix(1,0,0,1,519.5,723)"
     ed:tosuperid="253"
     id="254"
     stroke-linejoin="round" />
  <g
     ed:width="98"
     transform="matrix(1,0,0,1,22,469)"
     ed:height="53"
     id="101"
     ed:layout="rightmap"
     ed:topictype="mainidea">
    <path
       d="M4,0L94,0C96.7,0,98,1.3,98,4L98,49C98,51.7,96.7,53,94,53L4,53C1.3,53,0,51.7,0,49L0,4C0,1.3,1.3,0,4,0z"
       stroke-width="2"
       fill="#ff783c"
       stroke="#ff783c"
       stroke-linejoin="round"
       id="path46" />
    <text
       class="st1"
       id="text50"><tspan
         textLength="55"
         style="white-space:pre"
         x="20"
         y="30.95"
         id="tspan48">Papers</tspan></text>
  </g>
  <g
     ed:width="235"
     ed:parentid="101"
     transform="matrix(1,0,0,1,183,88)"
     ed:height="36"
     id="102">
    <path
       d="M4,0L231,0C233.7,0,235,1.3,235,4L235,32C235,34.7,233.7,36,231,36L4,36C1.3,36,0,34.7,0,32L0,4C0,1.3,1.3,0,4,0z"
       stroke-width="2"
       fill="#39444c"
       stroke="#39444c"
       stroke-linejoin="round"
       id="path53" />
    <text
       class="st2"
       id="text57"><tspan
         textLength="196"
         style="white-space:pre"
         x="18"
         y="21.95"
         id="tspan55">TNNLS_EnvelopDA_Designing</tspan></text>
  </g>
  <g
     ed:width="221"
     ed:parentid="101"
     transform="matrix(1,0,0,1,183,798)"
     ed:height="36"
     id="106">
    <path
       d="M4,0L217,0C219.7,0,221,1.3,221,4L221,32C221,34.7,219.7,36,217,36L4,36C1.3,36,0,34.7,0,32L0,4C0,1.3,1.3,0,4,0z"
       stroke-width="2"
       fill="#39444c"
       stroke="#39444c"
       stroke-linejoin="round"
       id="path60" />
    <text
       class="st3"
       id="text64"><tspan
         textLength="182"
         style="white-space:pre"
         x="18"
         y="21.95"
         class="st4"
         id="tspan62">TNNLS_EnvelopDA_Revised</tspan></text>
  </g>
  <g
     ed:width="51"
     ed:parentid="101"
     transform="matrix(1,0,0,1,183,867)"
     ed:height="36"
     id="108">
    <path
       d="M4,0L47,0C49.7,0,51,1.3,51,4L51,32C51,34.7,49.7,36,47,36L4,36C1.3,36,0,34.7,0,32L0,4C0,1.3,1.3,0,4,0z"
       stroke-width="2"
       fill="#39444c"
       stroke="#39444c"
       stroke-linejoin="round"
       id="path67" />
    <text
       class="st2"
       id="text71"><tspan
         textLength="12"
         style="white-space:pre"
         x="18"
         y="21.95"
         id="tspan69">...</tspan></text>
  </g>
  <g
     ed:width="47"
     style="display:none"
     ed:parentid="102"
     transform="matrix(1,0,0,1,547.5,1.88)"
     ed:height="24.5"
     id="114">
    <path
       d="M0,24.5L47,24.5"
       fill="none"
       stroke="#424f58"
       stroke-linejoin="round"
       id="path74" />
    <text
       class="st5"
       id="text78"><tspan
         textLength="29"
         style="white-space:pre"
         x="8"
         y="16.1"
         id="tspan76">Data</tspan></text>
  </g>
  <g
     ed:width="62"
     style="display:none"
     ed:parentid="102"
     transform="matrix(1,0,0,1,547.5,79.38)"
     ed:height="24.5"
     id="116">
    <path
       d="M0,24.5L62,24.5"
       fill="none"
       stroke="#424f58"
       stroke-linejoin="round"
       id="path81" />
    <text
       class="st5"
       id="text85"><tspan
         textLength="44"
         style="white-space:pre"
         x="8"
         y="16.1"
         id="tspan83">Figures</tspan></text>
  </g>
  <g
     ed:width="118"
     style="display:none"
     ed:parentid="150"
     transform="matrix(1,0,0,1,767.5,48.38)"
     ed:height="24.5"
     id="118"
     ed:layout="rightmap">
    <path
       d="M0,24.5L118,24.5"
       fill="none"
       stroke="#424f58"
       stroke-linejoin="round"
       id="path88" />
    <text
       class="st5"
       id="text92"><tspan
         textLength="100"
         style="white-space:pre"
         x="8"
         y="16.1"
         id="tspan90">eg: TNNLS_Fig.x</tspan></text>
  </g>
  <g
     ed:width="56"
     style="display:none"
     ed:parentid="102"
     transform="matrix(1,0,0,1,547.5,141.38)"
     ed:height="24.5"
     id="120">
    <path
       d="M0,24.5L56,24.5"
       fill="none"
       stroke="#424f58"
       stroke-linejoin="round"
       id="path95" />
    <text
       class="st5"
       id="text99"><tspan
         textLength="38"
         style="white-space:pre"
         x="8"
         y="16.1"
         id="tspan97">Tables</tspan></text>
  </g>
  <g
     ed:width="88"
     style="display:none"
     ed:parentid="102"
     transform="matrix(1,0,0,1,547.5,187.88)"
     ed:height="24.5"
     id="122">
    <path
       d="M0,24.5L88,24.5"
       fill="none"
       stroke="#424f58"
       stroke-linejoin="round"
       id="path102" />
    <text
       class="st5"
       id="text106"><tspan
         textLength="70"
         style="white-space:pre"
         x="8"
         y="16.1"
         id="tspan104">Manuscript</tspan></text>
  </g>
  <g
     ed:width="85"
     style="display:none"
     ed:parentid="102"
     transform="matrix(1,0,0,1,547.5,234.38)"
     ed:height="24.5"
     id="124">
    <path
       d="M0,24.5L85,24.5"
       fill="none"
       stroke="#424f58"
       stroke-linejoin="round"
       id="path109" />
    <text
       class="st5"
       id="text113"><tspan
         textLength="67"
         style="white-space:pre"
         x="8"
         y="16.1"
         id="tspan111">References</tspan></text>
  </g>
  <g
     ed:width="54"
     style="display:none"
     ed:parentid="102"
     transform="matrix(1,0,0,1,547.5,265.38)"
     ed:height="24.5"
     id="126">
    <path
       d="M0,24.5L54,24.5"
       fill="none"
       stroke="#424f58"
       stroke-linejoin="round"
       id="path116" />
    <text
       class="st5"
       id="text120"><tspan
         textLength="36"
         style="white-space:pre"
         x="8"
         y="16.1"
         id="tspan118">codes</tspan></text>
  </g>
  <g
     ed:width="95"
     style="display:none"
     ed:parentid="114"
     transform="matrix(1,0,0,1,621.5,-13.63)"
     ed:height="24.5"
     id="144"
     ed:layout="rightmap">
    <path
       d="M0,24.5L95,24.5"
       fill="none"
       stroke="#424f58"
       stroke-linejoin="round"
       id="path123" />
    <text
       class="st5"
       id="text127"><tspan
         textLength="77"
         style="white-space:pre"
         x="8"
         y="16.1"
         id="tspan125">OriginalData</tspan></text>
  </g>
  <g
     ed:width="109"
     style="display:none"
     ed:parentid="114"
     transform="matrix(1,0,0,1,621.5,17.38)"
     ed:height="24.5"
     id="146"
     ed:layout="rightmap">
    <path
       d="M0,24.5L109,24.5"
       fill="none"
       stroke="#424f58"
       stroke-linejoin="round"
       id="path130" />
    <text
       class="st5"
       id="text134"><tspan
         textLength="91"
         style="white-space:pre"
         x="8"
         y="16.1"
         id="tspan132">ProcessedData</tspan></text>
  </g>
  <g
     ed:width="214"
     style="display:none"
     ed:parentid="146"
     transform="matrix(1,0,0,1,757.5,17.38)"
     ed:height="24.5"
     id="148"
     ed:layout="rightmap">
    <path
       d="M0,24.5L214,24.5"
       fill="none"
       stroke="#424f58"
       stroke-linejoin="round"
       id="path137" />
    <text
       class="st5"
       id="text141"><tspan
         textLength="196"
         style="white-space:pre"
         x="8"
         y="16.1"
         id="tspan139">eg: TNNLS_A1.mat/SOC_A1.csv</tspan></text>
  </g>
  <g
     ed:width="104"
     style="display:none"
     ed:parentid="116"
     transform="matrix(1,0,0,1,636.5,48.38)"
     ed:height="24.5"
     id="150"
     ed:layout="rightmap">
    <path
       d="M0,24.5L104,24.5"
       fill="none"
       stroke="#424f58"
       stroke-linejoin="round"
       id="path144" />
    <text
       class="st5"
       id="text148"><tspan
         textLength="86"
         style="white-space:pre"
         x="8"
         y="16.1"
         id="tspan146">OriginalFigure</tspan></text>
  </g>
  <g
     ed:width="41"
     style="display:none"
     ed:parentid="116"
     transform="matrix(1,0,0,1,636.5,79.38)"
     ed:height="24.5"
     id="152"
     ed:layout="rightmap">
    <path
       d="M0,24.5L41,24.5"
       fill="none"
       stroke="#424f58"
       stroke-linejoin="round"
       id="path151" />
    <text
       class="st5"
       id="text155"><tspan
         textLength="23"
         style="white-space:pre"
         x="8"
         y="16.1"
         id="tspan153">JPG</tspan></text>
  </g>
  <g
     ed:width="47"
     style="display:none"
     ed:parentid="116"
     transform="matrix(1,0,0,1,636.5,110.38)"
     ed:height="24.5"
     id="154"
     ed:layout="rightmap">
    <path
       d="M0,24.5L47,24.5"
       fill="none"
       stroke="#424f58"
       stroke-linejoin="round"
       id="path158" />
    <text
       class="st5"
       id="text162"><tspan
         textLength="29"
         style="white-space:pre"
         x="8"
         y="16.1"
         id="tspan160">PNG</tspan></text>
  </g>
  <g
     ed:width="140"
     style="display:none"
     ed:parentid="152"
     transform="matrix(1,0,0,1,704.5,79.38)"
     ed:height="24.5"
     id="160"
     ed:layout="rightmap">
    <path
       d="M0,24.5L140,24.5"
       fill="none"
       stroke="#424f58"
       stroke-linejoin="round"
       id="path165" />
    <text
       class="st5"
       id="text169"><tspan
         textLength="122"
         style="white-space:pre"
         x="8"
         y="16.1"
         id="tspan167">eg: TNNLS_Fig.x.jpg</tspan></text>
  </g>
  <g
     ed:width="145"
     style="display:none"
     ed:parentid="120"
     transform="matrix(1,0,0,1,630.5,141.38)"
     ed:height="24.5"
     id="164"
     ed:layout="rightmap">
    <path
       d="M0,24.5L145,24.5"
       fill="none"
       stroke="#424f58"
       stroke-linejoin="round"
       id="path172" />
    <text
       class="st5"
       id="text176"><tspan
         textLength="127"
         style="white-space:pre"
         x="8"
         y="16.1"
         id="tspan174">eg: TNNLS_Tabx.xlsx</tspan></text>
  </g>
  <g
     ed:width="224"
     style="display:none"
     ed:parentid="122"
     transform="matrix(1,0,0,1,662.5,172.38)"
     ed:height="24.5"
     id="166"
     ed:layout="rightmap">
    <path
       d="M0,24.5L224,24.5"
       fill="none"
       stroke="#424f58"
       stroke-linejoin="round"
       id="path179" />
    <text
       class="st5"
       id="text183"><tspan
         textLength="206"
         style="white-space:pre"
         x="8"
         y="16.1"
         id="tspan181">eg: 1001TNNLS_manuscript.docx</tspan></text>
  </g>
  <g
     ed:width="245"
     style="display:none"
     ed:parentid="122"
     transform="matrix(1,0,0,1,662.5,203.38)"
     ed:height="24.5"
     id="168"
     ed:layout="rightmap">
    <path
       d="M0,24.5L245,24.5"
       fill="none"
       stroke="#424f58"
       stroke-linejoin="round"
       id="path186" />
    <text
       class="st5"
       id="text190"><tspan
         textLength="227"
         style="white-space:pre"
         x="8"
         y="16.1"
         id="tspan188">eg: 1001TNNLS_manuscript_v1.docx</tspan></text>
  </g>
  <g
     ed:width="237"
     ed:parentid="101"
     transform="matrix(1,0,0,1,183,293.5)"
     ed:height="36"
     id="187">
    <path
       d="M4,0L233,0C235.7,0,237,1.3,237,4L237,32C237,34.7,235.7,36,233,36L4,36C1.3,36,0,34.7,0,32L0,4C0,1.3,1.3,0,4,0z"
       stroke-width="2"
       fill="#39444c"
       stroke="#39444c"
       stroke-linejoin="round"
       id="path193" />
    <text
       class="st2"
       id="text197"><tspan
         textLength="198"
         style="white-space:pre"
         x="18"
         y="21.95"
         id="tspan195">TNNLS_EnvelopDA_withEditor</tspan></text>
  </g>
  <g
     ed:width="42"
     ed:parentid="187"
     transform="matrix(1,0,0,1,447,171)"
     ed:height="21.5"
     id="188">
    <path
       d="M0,21.5L42,21.5"
       fill="none"
       stroke="#424f58"
       stroke-linejoin="round"
       id="path200" />
    <text
       class="st6"
       id="text204"><tspan
         textLength="24"
         style="white-space:pre"
         x="8"
         y="13.1"
         id="tspan202">Data</tspan></text>
  </g>
  <g
     ed:width="56"
     ed:parentid="187"
     transform="matrix(1,0,0,1,447,241)"
     ed:height="21.5"
     id="189">
    <path
       d="M0,21.5L56,21.5"
       fill="none"
       stroke="#424f58"
       stroke-linejoin="round"
       id="path207" />
    <text
       class="st6"
       id="text211"><tspan
         textLength="38"
         style="white-space:pre"
         x="8"
         y="13.1"
         id="tspan209">Figures</tspan></text>
  </g>
  <g
     ed:width="103"
     ed:parentid="198"
     transform="matrix(1,0,0,1,650,213)"
     ed:height="21.5"
     id="190">
    <path
       d="M0,21.5L103,21.5"
       fill="none"
       stroke="#424f58"
       stroke-linejoin="round"
       id="path214" />
    <text
       class="st6"
       id="text218"><tspan
         textLength="85"
         style="white-space:pre"
         x="8"
         y="13.1"
         id="tspan216">eg: TNNLS_Fig.x</tspan></text>
  </g>
  <g
     ed:width="51"
     ed:parentid="187"
     transform="matrix(1,0,0,1,447,297)"
     ed:height="21.5"
     id="191">
    <path
       d="M0,21.5L51,21.5"
       fill="none"
       stroke="#424f58"
       stroke-linejoin="round"
       id="path221" />
    <text
       class="st6"
       id="text225"><tspan
         textLength="33"
         style="white-space:pre"
         x="8"
         y="13.1"
         id="tspan223">Tables</tspan></text>
  </g>
  <g
     ed:width="78"
     ed:parentid="187"
     transform="matrix(1,0,0,1,447,339)"
     ed:height="21.5"
     id="192">
    <path
       d="M0,21.5L78,21.5"
       fill="none"
       stroke="#424f58"
       stroke-linejoin="round"
       id="path228" />
    <text
       class="st6"
       id="text232"><tspan
         textLength="60"
         style="white-space:pre"
         x="8"
         y="13.1"
         id="tspan230">Manuscript</tspan></text>
  </g>
  <g
     ed:width="75"
     ed:parentid="187"
     transform="matrix(1,0,0,1,447,381)"
     ed:height="21.5"
     id="193">
    <path
       d="M0,21.5L75,21.5"
       fill="none"
       stroke="#424f58"
       stroke-linejoin="round"
       id="path235" />
    <text
       class="st6"
       id="text239"><tspan
         textLength="57"
         style="white-space:pre"
         x="8"
         y="13.1"
         id="tspan237">References</tspan></text>
  </g>
  <g
     ed:width="49"
     ed:parentid="187"
     transform="matrix(1,0,0,1,447,409)"
     ed:height="21.5"
     id="194">
    <path
       d="M0,21.5L49,21.5"
       fill="none"
       stroke="#424f58"
       stroke-linejoin="round"
       id="path242" />
    <text
       class="st6"
       id="text246"><tspan
         textLength="31"
         style="white-space:pre"
         x="8"
         y="13.1"
         id="tspan244">codes</tspan></text>
  </g>
  <g
     ed:width="84"
     ed:parentid="188"
     transform="matrix(1,0,0,1,516,157)"
     ed:height="21.5"
     id="195">
    <path
       d="M0,21.5L84,21.5"
       fill="none"
       stroke="#424f58"
       stroke-linejoin="round"
       id="path249" />
    <text
       class="st6"
       id="text253"><tspan
         textLength="66"
         style="white-space:pre"
         x="8"
         y="13.1"
         id="tspan251">OriginalData</tspan></text>
  </g>
  <g
     ed:width="95"
     ed:parentid="188"
     transform="matrix(1,0,0,1,516,185)"
     ed:height="21.5"
     id="196">
    <path
       d="M0,21.5L95,21.5"
       fill="none"
       stroke="#424f58"
       stroke-linejoin="round"
       id="path256" />
    <text
       class="st6"
       id="text260"><tspan
         textLength="77"
         style="white-space:pre"
         x="8"
         y="13.1"
         id="tspan258">ProcessedData</tspan></text>
  </g>
  <g
     ed:width="181"
     ed:parentid="196"
     transform="matrix(1,0,0,1,638,185)"
     ed:height="21.5"
     id="197">
    <path
       d="M0,21.5L181,21.5"
       fill="none"
       stroke="#424f58"
       stroke-linejoin="round"
       id="path263" />
    <text
       class="st6"
       id="text267"><tspan
         textLength="163"
         style="white-space:pre"
         x="8"
         y="13.1"
         id="tspan265">eg: TNNLS_A1.mat/SOC_A1.csv</tspan></text>
  </g>
  <g
     ed:width="93"
     ed:parentid="189"
     transform="matrix(1,0,0,1,530,213)"
     ed:height="21.5"
     id="198">
    <path
       d="M0,21.5L93,21.5"
       fill="none"
       stroke="#424f58"
       stroke-linejoin="round"
       id="path270" />
    <text
       class="st6"
       id="text274"><tspan
         textLength="75"
         style="white-space:pre"
         x="8"
         y="13.1"
         id="tspan272">OriginalFigure</tspan></text>
  </g>
  <g
     ed:width="37"
     ed:parentid="189"
     transform="matrix(1,0,0,1,530,241)"
     ed:height="21.5"
     id="199">
    <path
       d="M0,21.5L37,21.5"
       fill="none"
       stroke="#424f58"
       stroke-linejoin="round"
       id="path277" />
    <text
       class="st6"
       id="text281"><tspan
         textLength="19"
         style="white-space:pre"
         x="8"
         y="13.1"
         id="tspan279">JPG</tspan></text>
  </g>
  <g
     ed:width="42"
     ed:parentid="189"
     transform="matrix(1,0,0,1,530,269)"
     ed:height="21.5"
     id="200">
    <path
       d="M0,21.5L42,21.5"
       fill="none"
       stroke="#424f58"
       stroke-linejoin="round"
       id="path284" />
    <text
       class="st6"
       id="text288"><tspan
         textLength="24"
         style="white-space:pre"
         x="8"
         y="13.1"
         id="tspan286">PNG</tspan></text>
  </g>
  <g
     ed:width="123"
     ed:parentid="199"
     transform="matrix(1,0,0,1,594,241)"
     ed:height="21.5"
     id="201">
    <path
       d="M0,21.5L123,21.5"
       fill="none"
       stroke="#424f58"
       stroke-linejoin="round"
       id="path291" />
    <text
       class="st6"
       id="text295"><tspan
         textLength="105"
         style="white-space:pre"
         x="8"
         y="13.1"
         id="tspan293">eg: TNNLS_Fig.x.jpg</tspan></text>
  </g>
  <g
     ed:width="126"
     ed:parentid="191"
     transform="matrix(1,0,0,1,525,297)"
     ed:height="21.5"
     id="202">
    <path
       d="M0,21.5L126,21.5"
       fill="none"
       stroke="#424f58"
       stroke-linejoin="round"
       id="path298" />
    <text
       class="st6"
       id="text302"><tspan
         textLength="108"
         style="white-space:pre"
         x="8"
         y="13.1"
         id="tspan300">eg: TNNLS_Tabx.xlsx</tspan></text>
  </g>
  <g
     ed:width="190"
     ed:parentid="192"
     transform="matrix(1,0,0,1,552,325)"
     ed:height="21.5"
     id="203">
    <path
       d="M0,21.5L190,21.5"
       fill="none"
       stroke="#424f58"
       stroke-linejoin="round"
       id="path305" />
    <text
       class="st6"
       id="text309"><tspan
         textLength="172"
         style="white-space:pre"
         x="8"
         y="13.1"
         id="tspan307">eg: 1001TNNLS_manuscript.docx</tspan></text>
  </g>
  <g
     ed:width="207"
     ed:parentid="192"
     transform="matrix(1,0,0,1,552,353)"
     ed:height="21.5"
     id="204">
    <path
       d="M0,21.5L207,21.5"
       fill="none"
       stroke="#424f58"
       stroke-linejoin="round"
       id="path312" />
    <text
       class="st6"
       id="text316"><tspan
         textLength="189"
         style="white-space:pre"
         x="8"
         y="13.1"
         id="tspan314">eg: 1001TNNLS_manuscript_v1.docx</tspan></text>
  </g>
  <g
     ed:width="221"
     ed:parentid="101"
     transform="matrix(1,0,0,1,183,607)"
     ed:height="36"
     id="223">
    <path
       d="M4,0L217,0C219.7,0,221,1.3,221,4L221,32C221,34.7,219.7,36,217,36L4,36C1.3,36,0,34.7,0,32L0,4C0,1.3,1.3,0,4,0z"
       stroke-width="2"
       fill="#39444c"
       stroke="#39444c"
       stroke-linejoin="round"
       id="path319" />
    <text
       class="st2"
       id="text323"><tspan
         textLength="182"
         style="white-space:pre"
         x="18"
         y="21.95"
         id="tspan321">TNNLS_EnvelopDA_Revised</tspan></text>
  </g>
  <g
     ed:width="42"
     ed:parentid="223"
     transform="matrix(1,0,0,1,431,463.5)"
     ed:height="21.5"
     id="224">
    <path
       d="M0,21.5L42,21.5"
       fill="none"
       stroke="#424f58"
       stroke-linejoin="round"
       id="path326" />
    <text
       class="st6"
       id="text330"><tspan
         textLength="24"
         style="white-space:pre"
         x="8"
         y="13.1"
         id="tspan328">Data</tspan></text>
  </g>
  <g
     ed:width="56"
     ed:parentid="223"
     transform="matrix(1,0,0,1,431,505.5)"
     ed:height="21.5"
     id="225">
    <path
       d="M0,21.5L56,21.5"
       fill="none"
       stroke="#424f58"
       stroke-linejoin="round"
       id="path333" />
    <text
       class="st6"
       id="text337"><tspan
         textLength="38"
         style="white-space:pre"
         x="8"
         y="13.1"
         id="tspan335">Figures</tspan></text>
  </g>
  <g
     ed:width="51"
     ed:parentid="223"
     transform="matrix(1,0,0,1,431,547.5)"
     ed:height="21.5"
     id="227">
    <path
       d="M0,21.5L51,21.5"
       fill="none"
       stroke="#424f58"
       stroke-linejoin="round"
       id="path340" />
    <text
       class="st6"
       id="text344"><tspan
         textLength="33"
         style="white-space:pre"
         x="8"
         y="13.1"
         id="tspan342">Tables</tspan></text>
  </g>
  <g
     ed:width="78"
     ed:parentid="223"
     transform="matrix(1,0,0,1,431,596.5)"
     ed:height="21.5"
     id="228">
    <path
       d="M0,21.5L78,21.5"
       fill="none"
       stroke="#424f58"
       stroke-linejoin="round"
       id="path347" />
    <text
       class="st6"
       id="text351"><tspan
         textLength="60"
         style="white-space:pre"
         x="8"
         y="13.1"
         id="tspan349">Manuscript</tspan></text>
  </g>
  <g
     ed:width="75"
     ed:parentid="223"
     transform="matrix(1,0,0,1,431,687.5)"
     ed:height="21.5"
     id="229">
    <path
       d="M0,21.5L75,21.5"
       fill="none"
       stroke="#424f58"
       stroke-linejoin="round"
       id="path354" />
    <text
       class="st6"
       id="text358"><tspan
         textLength="57"
         style="white-space:pre"
         x="8"
         y="13.1"
         id="tspan356">References</tspan></text>
  </g>
  <g
     ed:width="49"
     ed:parentid="223"
     transform="matrix(1,0,0,1,431,743.5)"
     ed:height="21.5"
     id="230">
    <path
       d="M0,21.5L49,21.5"
       fill="none"
       stroke="#424f58"
       stroke-linejoin="round"
       id="path361" />
    <text
       class="st6"
       id="text365"><tspan
         textLength="31"
         style="white-space:pre"
         x="8"
         y="13.1"
         id="tspan363">codes</tspan></text>
  </g>
  <g
     ed:width="95"
     style="display:none"
     ed:parentid="224"
     transform="matrix(1,0,0,1,598.5,474)"
     ed:height="24.5"
     id="231">
    <path
       d="M0,24.5L95,24.5"
       fill="none"
       stroke="#424f58"
       stroke-linejoin="round"
       id="path368" />
    <text
       class="st5"
       id="text372"><tspan
         textLength="77"
         style="white-space:pre"
         x="8"
         y="16.1"
         id="tspan370">OriginalData</tspan></text>
  </g>
  <g
     ed:width="109"
     style="display:none"
     ed:parentid="224"
     transform="matrix(1,0,0,1,598.5,505)"
     ed:height="24.5"
     id="232">
    <path
       d="M0,24.5L109,24.5"
       fill="none"
       stroke="#424f58"
       stroke-linejoin="round"
       id="path375" />
    <text
       class="st5"
       id="text379"><tspan
         textLength="91"
         style="white-space:pre"
         x="8"
         y="16.1"
         id="tspan377">ProcessedData</tspan></text>
  </g>
  <g
     ed:width="214"
     style="display:none"
     ed:parentid="232"
     transform="matrix(1,0,0,1,734.5,505)"
     ed:height="24.5"
     id="233"
     ed:layout="rightmap">
    <path
       d="M0,24.5L214,24.5"
       fill="none"
       stroke="#424f58"
       stroke-linejoin="round"
       id="path382" />
    <text
       class="st5"
       id="text386"><tspan
         textLength="196"
         style="white-space:pre"
         x="8"
         y="16.1"
         id="tspan384">eg: TNNLS_A1.mat/SOC_A1.csv</tspan></text>
  </g>
  <g
     ed:width="76"
     ed:parentid="225"
     transform="matrix(1,0,0,1,514,491.5)"
     ed:height="21.5"
     id="234">
    <path
       d="M0,21.5L76,21.5"
       fill="none"
       stroke="#424f58"
       stroke-linejoin="round"
       id="path389" />
    <text
       class="st6"
       id="text393"><tspan
         textLength="58"
         style="white-space:pre"
         x="8"
         y="13.1"
         id="tspan391">OldVersion</tspan></text>
  </g>
  <g
     ed:width="81"
     ed:parentid="225"
     transform="matrix(1,0,0,1,514,519.5)"
     ed:height="21.5"
     id="236">
    <path
       d="M0,21.5L81,21.5"
       fill="none"
       stroke="#424f58"
       stroke-linejoin="round"
       id="path396" />
    <text
       class="st6"
       id="text400"><tspan
         textLength="63"
         style="white-space:pre"
         x="8"
         y="13.1"
         id="tspan398">NewVersion</tspan></text>
  </g>
  <g
     ed:width="145"
     style="display:none"
     ed:parentid="227"
     transform="matrix(1,0,0,1,607.5,598)"
     ed:height="24.5"
     id="238">
    <path
       d="M0,24.5L145,24.5"
       fill="none"
       stroke="#424f58"
       stroke-linejoin="round"
       id="path403" />
    <text
       class="st5"
       id="text407"><tspan
         textLength="127"
         style="white-space:pre"
         x="8"
         y="16.1"
         id="tspan405">eg: TNNLS_Tabx.xlsx</tspan></text>
  </g>
  <g
     ed:width="190"
     ed:parentid="246"
     transform="matrix(1,0,0,1,729,603.5)"
     ed:height="21.5"
     id="239">
    <path
       d="M0,21.5L190,21.5"
       fill="none"
       stroke="#424f58"
       stroke-linejoin="round"
       id="path410" />
    <text
       class="st6"
       id="text414"><tspan
         textLength="172"
         style="white-space:pre"
         x="8"
         y="13.1"
         id="tspan412">eg: 1001TNNLS_manuscript.docx</tspan></text>
  </g>
  <g
     ed:width="207"
     ed:parentid="246"
     transform="matrix(1,0,0,1,729,631.5)"
     ed:height="21.5"
     id="240">
    <path
       d="M0,21.5L207,21.5"
       fill="none"
       stroke="#424f58"
       stroke-linejoin="round"
       id="path417" />
    <text
       class="st6"
       id="text421"><tspan
         textLength="189"
         style="white-space:pre"
         x="8"
         y="13.1"
         id="tspan419">eg: 1001TNNLS_manuscript_v1.docx</tspan></text>
  </g>
  <g
     ed:width="79"
     ed:parentid="228"
     transform="matrix(1,0,0,1,536,575.5)"
     ed:height="21.5"
     id="242">
    <path
       d="M0,21.5L79,21.5"
       fill="none"
       stroke="#424f58"
       stroke-linejoin="round"
       id="path424" />
    <text
       class="st6"
       id="text428"><tspan
         textLength="61"
         style="white-space:pre"
         x="8"
         y="13.1"
         id="tspan426">FirstVersion</tspan></text>
  </g>
  <g
     ed:width="97"
     ed:parentid="228"
     transform="matrix(1,0,0,1,536,617.5)"
     ed:height="21.5"
     id="244">
    <path
       d="M0,21.5L97,21.5"
       fill="none"
       stroke="#424f58"
       stroke-linejoin="round"
       id="path431" />
    <text
       class="st6"
       id="text435"><tspan
         textLength="79"
         style="white-space:pre"
         x="8"
         y="13.1"
         id="tspan433">RevisedVersion</tspan></text>
  </g>
  <g
     ed:width="42"
     ed:parentid="244"
     transform="matrix(1,0,0,1,660,617.5)"
     ed:height="21.5"
     id="246">
    <path
       d="M0,21.5L42,21.5"
       fill="none"
       stroke="#424f58"
       stroke-linejoin="round"
       id="path438" />
    <text
       class="st6"
       id="text442"><tspan
         textLength="24"
         style="white-space:pre"
         x="8"
         y="13.1"
         id="tspan440">1001</tspan></text>
  </g>
  <g
     ed:width="66"
     ed:parentid="229"
     transform="matrix(1,0,0,1,533,659.5)"
     ed:height="21.5"
     id="249">
    <path
       d="M0,21.5L66,21.5"
       fill="none"
       stroke="#424f58"
       stroke-linejoin="round"
       id="path445" />
    <text
       class="st6"
       id="text449"><tspan
         textLength="48"
         style="white-space:pre"
         x="8"
         y="13.1"
         id="tspan447">Template</tspan></text>
  </g>
  <g
     ed:width="55"
     ed:parentid="229"
     transform="matrix(1,0,0,1,533,687.5)"
     ed:height="21.5"
     id="251">
    <path
       d="M0,21.5L55,21.5"
       fill="none"
       stroke="#424f58"
       stroke-linejoin="round"
       id="path452" />
    <text
       class="st6"
       id="text456"><tspan
         textLength="37"
         style="white-space:pre"
         x="8"
         y="13.1"
         id="tspan454">TopicA</tspan></text>
  </g>
  <g
     ed:width="54"
     ed:parentid="229"
     transform="matrix(1,0,0,1,533,715.5)"
     ed:height="21.5"
     id="253">
    <path
       d="M0,21.5L54,21.5"
       fill="none"
       stroke="#424f58"
       stroke-linejoin="round"
       id="path459" />
    <text
       class="st6"
       id="text463"><tspan
         textLength="36"
         style="white-space:pre"
         x="8"
         y="13.1"
         id="tspan461">TopicB</tspan></text>
  </g>
</svg>
